<?xml version="1.0" standalone="no"?>
<!DOCTYPE svg PUBLIC "-//W3C//DTD SVG 20010904//EN"
 "http://www.w3.org/TR/2001/REC-SVG-20010904/DTD/svg10.dtd">
<svg version="1.0" xmlns="http://www.w3.org/2000/svg"
 width="314.000000pt" height="233.000000pt" viewBox="0 0 314.000000 233.000000"
 preserveAspectRatio="xMidYMid meet">

<g transform="translate(0.000000,233.000000) scale(0.100000,-0.100000)"
fill="#000000" stroke="none">
<path d="M1437 1965 l-128 -336 40 -47 c22 -26 71 -78 110 -117 70 -69 71 -70
71 -122 l0 -53 40 0 c36 0 40 -2 40 -25 0 -37 -37 -66 -123 -98 -204 -75 -347
-242 -393 -457 -40 -188 30 -415 170 -555 48 -48 80 -69 151 -100 86 -38 95
-39 216 -43 210 -6 363 36 456 126 49 47 62 90 74 245 11 143 20 173 64 231
44 58 55 80 55 110 0 58 -82 62 -166 8 -93 -60 -128 -110 -166 -230 -40 -132
-64 -152 -175 -152 -118 1 -188 40 -238 131 -25 45 -30 65 -29 120 0 104 33
161 137 237 97 71 293 269 302 304 4 14 -2 47 -14 79 -12 30 -21 57 -21 62 0
4 18 7 40 7 l40 0 0 53 0 53 109 115 109 115 -84 220 c-47 120 -105 272 -130
337 l-46 117 -191 0 -192 0 -128 -335z m575 94 c68 -166 83 -212 72 -216 -8
-3 -16 -4 -18 -2 -1 2 -39 92 -83 199 l-80 195 -145 3 -145 3 -71 -174 c-39
-95 -76 -185 -81 -200 -11 -27 -25 -35 -35 -18 -4 6 91 255 154 399 9 22 13
22 177 22 l168 0 87 -211z m-124 52 c-1 -5 -99 -111 -216 -235 -224 -238 -226
-241 -181 -282 19 -17 20 -17 38 2 10 10 103 111 206 224 103 113 191 206 195
208 8 3 60 -119 60 -139 0 -6 -76 -93 -168 -192 -92 -100 -171 -188 -176 -194
-5 -10 6 -13 47 -13 l55 0 132 143 c73 78 136 143 141 145 10 4 47 -77 56
-120 5 -23 -7 -40 -78 -118 -76 -83 -85 -90 -121 -90 -21 0 -38 4 -38 8 0 15
24 32 46 32 24 0 154 137 154 164 0 21 -22 67 -30 64 -4 -2 -62 -63 -129 -135
l-123 -133 -100 0 c-57 0 -98 4 -96 9 2 8 124 142 346 383 43 46 43 48 32 83
-6 19 -15 35 -20 35 -5 0 -88 -87 -186 -192 -97 -106 -188 -204 -201 -218
l-24 -25 -49 55 c-27 30 -50 58 -50 62 0 18 445 478 463 478 10 0 17 -4 15 -9z"/>
<path d="M276 852 l-276 -552 195 0 c210 0 259 8 322 56 42 31 80 97 89 152
l7 42 -102 0 c-55 0 -101 2 -101 5 0 3 32 71 71 152 l71 148 118 -237 c129
-257 145 -276 236 -304 49 -15 194 -20 193 -6 0 4 -123 252 -273 552 l-274
545 -276 -553z"/>
<path d="M2534 1390 c-117 -17 -224 -100 -263 -205 -47 -126 -19 -265 72 -359
80 -82 134 -99 332 -104 142 -3 162 -6 181 -24 44 -40 31 -122 -22 -147 -17
-7 -117 -11 -306 -11 l-281 0 5 -44 c7 -55 50 -121 106 -161 l44 -30 227 -3
c214 -3 231 -2 286 19 71 27 149 100 185 174 36 74 35 198 -2 275 -70 149
-177 200 -416 200 l-134 0 -29 29 c-39 40 -39 82 0 122 l29 29 139 0 c168 0
217 13 278 75 43 43 82 131 71 160 -4 13 -41 15 -228 14 -123 -1 -246 -5 -274
-9z"/>
</g>
</svg>
