<svg xmlns="http://www.w3.org/2000/svg" width="872.316" height="295.245" viewBox="0 0 872.316 295.245"><g transform="translate(-9.874 -454.249)"><g transform="translate(278.236 456.749)"><path d="M109.561-69.869q0,18.515-13.886,30.457T59.941-27.471a74.432,74.432,0,0,1-37.77-10.368L17.728-28.4H9.4L8.1-80.978h8.332q6.11,17.219,15.552,28.513Q43.648-38.394,56.979-38.394q10.924,0,17.311-6.48t6.388-16.663q0-14.812-20.737-22.4-9.072-3.148-24.254-9.072Q11.433-103.937,11.433-130.6a36.914,36.914,0,0,1,12.22-27.957q12.96-12.22,33.512-12.22,18.515,0,32.771,9.072l3.888-7.776h8.517l.926,49.62H95.119Q88.454-138.744,81.419-148q-9.072-11.849-21.292-11.849a19.424,19.424,0,0,0-14.627,6.2,21.037,21.037,0,0,0-5.925,15.09q0,8.147,4.814,13.238t15.738,9.165q8.7,3.147,24.069,9.072,12.22,5.554,18.144,13.145Q109.561-84.681,109.561-69.869Z" transform="translate(225.186 220.231)" fill="#fff" stroke="#000" stroke-width="5"/><path d="M140.311-30.049H71.066v-8.517q19.07-1.111,19.07-3.888A13.6,13.6,0,0,0,89.21-46.9l-10-28.513h-42.4q-7.776,21.847-7.776,29.994,0,5.554,20.551,6.665v8.7H-5.4v-8.7q7.961-.37,12.4-2.962Q14.6-45.971,18.3-55.969L59.957-169.65H77.176L120.315-50.045q2.037,5.184,8.332,8.146a33.329,33.329,0,0,0,11.664,3.148ZM74.954-86.519,57.921-133.546,41.072-86.519Z" transform="translate(5.4 220.032)" fill="#fff" stroke="#000" stroke-width="5"/><g transform="translate(133.635)"><path d="M320.367-467.486v11.051h3.493c3.43,0,3.493,0,3.493,1.842,0,2.922-2.985,5.4-8.383,7.05-29.6,8.955-43.886,42.108-30.295,70.179,4.065,8.32,8.873,16.333,20.006,21.34s12.1,4.805,24.311,4.853,21.353-3.011,24.529-4.662c14.8-7.875,13.812-12.478,15.019-30.134.572-8.828,1.588-11.686,5.652-16,6.8-7.177,4.827-13.591-3.684-12-2.54.445-8.511,4.255-11.813,7.494a41.039,41.039,0,0,0-4.827,6.224c-2.54,3.874-4.159,16.988-8.541,19.274-2.858,1.461-3.938,1.651-9.273,1.651-4.827,0-6.669-.254-9.146-1.4a20.367,20.367,0,0,1-10.67-10.162c-1.842-3.684-2.1-4.827-2.032-9.018.064-8.764,3.938-15.306,11.877-19.942,5.97-3.493,22.546-20.006,24.325-24.2.826-2.032.762-2.477-1.016-6.986-1.016-2.667-1.905-4.954-1.905-5.081,0-.191,1.461-.318,3.176-.318h3.176v-11.051Z" transform="translate(-283.507 540.23)" fill="#fff" stroke="#000" stroke-width="5"/><g transform="translate(18.521 0)"><path d="M268.9-499.022,287-480.1h37.852s18.049-18.736,18.1-18.926c.054-.217-21.395-55.956-21.395-55.956H290.295Z" transform="translate(-268.9 554.978)" fill="#fff" stroke="#000" stroke-width="5"/><path d="M4450.325,3589.043l11.642-28.69h21.861l11.855,28.69" transform="translate(-4435.915 -3553.63)" fill="none" stroke="#000" stroke-width="3"/><g transform="translate(9.874 13.634)"><path d="M5128.38,3544.868h2.351l13.153-14.231-3.811-9.737-22.316,23.968h-13.394l31.791-34.58-3.783-9.591-34.468,37.4-6.761-7.462,35.1-37.321" transform="translate(-5091.144 -3489.648)" fill="none" stroke="#000" stroke-linecap="square" stroke-width="3"/><path d="M4978.21,3507.809h2.972v-2.48h-.6Z" transform="translate(-4944.719 -3451.345)"/><path d="M0,0H2.973V2.482h-.6Z" transform="translate(38.728 1.755) rotate(135)"/></g></g></g></g><path d="M61.064,31.785H31.612V28.163q8.111-.472,8.111-1.654a5.784,5.784,0,0,0-.394-1.89L35.077,12.491H17.043q-3.308,9.293-3.308,12.758,0,2.363,8.741,2.835v3.7H-.912v-3.7a11.627,11.627,0,0,0,5.276-1.26,10.959,10.959,0,0,0,4.8-6.064L26.887-27.592h7.324L52.559,23.28A6.543,6.543,0,0,0,56.1,26.745a14.176,14.176,0,0,0,4.961,1.339ZM33.266,7.766l-7.245-20-7.166,20Zm77.49,23.074-17.01,1.024-.63-.709-.394-5.513h-.236a28.541,28.541,0,0,1-5.513,4.8A15.758,15.758,0,0,1,78.39,32.73q-11.34,0-11.34-14.49V-1.29a4.966,4.966,0,0,0-2.6-4.331,9.7,9.7,0,0,0-4.41-1.024v-3.386L78-11.37l.473.63V17.846a10.684,10.684,0,0,0,1.654,6.418,4.869,4.869,0,0,0,4.016,2.244q5.513,0,8.505-6.3V-1.6a5.173,5.173,0,0,0-1.732-4.253q-.709-.63-4.883-.787v-3.386l17.4-1.339.551.63V22.493a4.54,4.54,0,0,0,2.284,4.1,10.278,10.278,0,0,0,4.489.866Zm27.72.945H114.221V28.32a30.649,30.649,0,0,0,4.174-.394q2.363-.788,2.363-3.7V-18.694a5.736,5.736,0,0,0-2.363-5.04q-1.575-1.1-6.379-1.339v-3.386l19.373-1.181.63.709V23.674a3.837,3.837,0,0,0,2.284,3.859,12.488,12.488,0,0,0,4.174.788Zm49.613-12.206q-.394,13.309-11.34,13.309a9.458,9.458,0,0,1-5.985-1.676,12.744,12.744,0,0,1-3.071-4.388h-.157a16.824,16.824,0,0,1-13.388,6.064,10.689,10.689,0,0,1-7.718-2.953,9.889,9.889,0,0,1-3.071-7.442q0-5.276,2.6-8.269a15.929,15.929,0,0,1,5.906-3.78q1.575-.63,8.505-2.914a45.7,45.7,0,0,0,7.245-2.914V.6a10.852,10.852,0,0,0-1.181-5.2,5.4,5.4,0,0,0-5.04-2.993,7.218,7.218,0,0,0-4.8,1.654q0,.079.709,2.126A9.156,9.156,0,0,1,157.77-.9a4.76,4.76,0,0,1-1.339,3.386A6.282,6.282,0,0,1,151.549,4.3q-6.3,0-6.3-6.093,0-4.116,5.591-7.123a22.9,22.9,0,0,1,11.183-2.849q8.269,0,12.049,2.367,4.961,3.156,4.961,11.521,0,4.814-.276,12.271t-.276,8.325q0,4.025,3.15,4.025,2.678,0,2.835-7.166Zm-20.4-11.1a51.8,51.8,0,0,0-8.348,4.016,8.849,8.849,0,0,0-3.859,7.481q0,6.536,5.355,6.536a7.536,7.536,0,0,0,6.536-3.386Zm71.033,23.31H221.794A57.706,57.706,0,0,0,217.226,19.5q-3.7-7.166-6.773-7.166a6.561,6.561,0,0,0-4.016,1.024V23.674a4.151,4.151,0,0,0,1.969,3.859,9.8,9.8,0,0,0,4.095.788v3.465H188.719V28.32a32.157,32.157,0,0,0,4.174-.394q2.284-.709,2.284-3.7V-19.009a5.983,5.983,0,0,0-2.284-5.2q-.945-.709-6.143-.945v-3.386l19.136-1.1.551.551V10.129Q210.769,5.876,218.8-3.1a4.054,4.054,0,0,0,1.024-2.284q0-1.339-5.2-1.811v-3.386H235.1v3.308q-8.19,2.363-10.907,4.449a59.635,59.635,0,0,0-6.812,6.5q5.434,2.6,9.293,9.686a116.215,116.215,0,0,1,4.883,11.5,5.142,5.142,0,0,0,3.622,2.914,12.135,12.135,0,0,0,3.544.551Zm50.873,0H266.681V28.32a13.244,13.244,0,0,0,3.15-.512q1.969-.512,1.969-3.583V3.671a10.868,10.868,0,0,0-1.811-6.615,4.756,4.756,0,0,0-4.016-2.205,9.208,9.208,0,0,0-6.143,2.363,10.878,10.878,0,0,0-2.914,3.859v22.6a4.151,4.151,0,0,0,1.969,3.859,8.014,8.014,0,0,0,3.307.788v3.465h-23V28.32a32.158,32.158,0,0,0,4.174-.394q2.284-.709,2.284-3.7V-19.009a5.983,5.983,0,0,0-2.284-5.2q-.945-.709-6.143-.945v-3.386l19.136-1.1.551.551V-4.282h.236a35.335,35.335,0,0,1,5.67-5.014,16.018,16.018,0,0,1,8.82-2.467q11.576,0,11.576,13.965V23.817A3.875,3.875,0,0,0,285.5,27.6a12.207,12.207,0,0,0,4.1.71ZM369.608,16.9q-6.93,16.065-23.074,16.065-12.049,0-19.845-7.8-8.111-8.19-8.111-21.893,0-13.86,8.19-22.562t21.026-8.7a30.039,30.039,0,0,1,14.175,3.859l1.654-3.308h3.623l.315,22.444H363.7q-2.835-9.608-6.457-14.1a11.184,11.184,0,0,0-9.056-4.489q-7.166,0-11.1,6.615T333.147,1.7q0,12.521,4.568,18.979a13.684,13.684,0,0,0,11.813,5.985,15.566,15.566,0,0,0,9.608-3.071,29.109,29.109,0,0,0,7.009-8.584ZM411.267-3.26a8.662,8.662,0,0,1-1.772,5.575,5.541,5.541,0,0,1-4.528,2.222q-6.379,0-6.379-5.434a22.168,22.168,0,0,1,.788-4.174q-4.41.079-7.639,5.2v23.31a4.071,4.071,0,0,0,2.363,3.938q1.339.709,6.143.945v3.465h-26.3V28.32a21.453,21.453,0,0,0,4.1-.315q2.362-.866,2.362-3.859V-1.132a5.079,5.079,0,0,0-2.362-4.489,9.15,9.15,0,0,0-4.489-1.1V-10.11l17.246-1.26.551.551v6.458h.63q5.276-7.009,11.734-7.009a7.264,7.264,0,0,1,5.512,2.144A8.288,8.288,0,0,1,411.267-3.26Zm48.589,22.839q-.394,13.309-11.34,13.309a9.458,9.458,0,0,1-5.985-1.676,12.744,12.744,0,0,1-3.071-4.388H439.3a16.824,16.824,0,0,1-13.388,6.064,10.689,10.689,0,0,1-7.718-2.953,9.889,9.889,0,0,1-3.071-7.442q0-5.276,2.6-8.269a15.929,15.929,0,0,1,5.906-3.78q1.575-.63,8.505-2.914a45.7,45.7,0,0,0,7.245-2.914V.6A10.852,10.852,0,0,0,438.2-4.6a5.4,5.4,0,0,0-5.04-2.993,7.218,7.218,0,0,0-4.8,1.654q0,.079.709,2.126A9.156,9.156,0,0,1,429.537-.9,4.76,4.76,0,0,1,428.2,2.49,6.282,6.282,0,0,1,423.316,4.3q-6.3,0-6.3-6.093,0-4.116,5.591-7.123a22.9,22.9,0,0,1,11.182-2.849q8.269,0,12.049,2.367Q450.8-6.24,450.8,2.125q0,4.814-.276,12.271t-.276,8.325q0,4.025,3.15,4.025,2.678,0,2.835-7.166Zm-20.4-11.1a51.791,51.791,0,0,0-8.348,4.016,8.849,8.849,0,0,0-3.859,7.481q0,6.536,5.355,6.536a7.536,7.536,0,0,0,6.536-3.386Zm72.293,23.31H488.836V28.32a10.021,10.021,0,0,0,3.229-.315q1.89-.866,1.89-3.859V3.75a11.014,11.014,0,0,0-1.811-6.694,4.8,4.8,0,0,0-4.016-2.126,9.015,9.015,0,0,0-6.143,2.363,9.094,9.094,0,0,0-2.914,3.859v22.6q0,4.253,5.276,4.568v3.465H461.273V28.32a15.174,15.174,0,0,0,4.1-.315,3.738,3.738,0,0,0,2.362-3.859V-1.132a5.079,5.079,0,0,0-2.362-4.489,9.15,9.15,0,0,0-4.489-1.1V-10.11l17.246-1.26.551.551.394,6.536h.158a38.59,38.59,0,0,1,5.67-4.934,15.511,15.511,0,0,1,8.741-2.547q11.734,0,11.734,14.043V23.9a3.722,3.722,0,0,0,2.284,3.709,12.79,12.79,0,0,0,4.095.71Zm44.415-10.474a21.339,21.339,0,0,1-7.639,8.269A20.036,20.036,0,0,1,537.5,32.809q-10.474,0-16.222-6.547-5.355-6.075-5.355-15.857a22.757,22.757,0,0,1,5.513-15.383,19,19,0,0,1,15.12-6.785q9.45,0,14.175,5.453,4.174,4.743,4.174,12.727v3H528.132q0,7.954,3.544,12.443t10.08,4.489q7.088,0,11.5-7.8ZM542.858,5.325q0-12.994-6.773-12.994a6.321,6.321,0,0,0-5.591,3.229q-2.284,3.465-2.363,10Zm84.972,9.608a16.328,16.328,0,0,1-5.906,12.954q-5.906,5.079-15.2,5.079a31.659,31.659,0,0,1-16.065-4.41l-1.89,4.016h-3.544l-.551-22.365h3.544a39.116,39.116,0,0,0,6.615,12.128q4.961,5.985,10.631,5.985a9.87,9.87,0,0,0,7.363-2.756,9.669,9.669,0,0,0,2.717-7.088q0-6.3-8.82-9.529-3.859-1.339-10.316-3.859Q586.092.443,586.092-10.9a15.7,15.7,0,0,1,5.2-11.891q5.513-5.2,14.254-5.2a25.4,25.4,0,0,1,13.939,3.859l1.654-3.308h3.622l.394,21.105h-3.465q-2.835-8.033-5.827-11.97Q612-23.34,606.8-23.34a8.262,8.262,0,0,0-6.221,2.638,8.948,8.948,0,0,0-2.52,6.418,7.861,7.861,0,0,0,2.048,5.631,17.747,17.747,0,0,0,6.694,3.9Q610.5-3.416,617.041-.9A20.12,20.12,0,0,1,624.759,4.7Q627.83,8.633,627.83,14.933Zm45.833,6.379a21.338,21.338,0,0,1-7.639,8.269A20.035,20.035,0,0,1,655,32.809q-10.474,0-16.223-6.547-5.355-6.075-5.355-15.857a22.756,22.756,0,0,1,5.513-15.383,19,19,0,0,1,15.12-6.785q9.45,0,14.175,5.453Q672.4-1.567,672.4,6.417v3H645.627q0,7.954,3.544,12.443t10.08,4.489q7.087,0,11.5-7.8ZM660.354,5.325q0-12.994-6.772-12.994A6.321,6.321,0,0,0,647.99-4.44q-2.284,3.465-2.362,10ZM714.77-3.26A8.661,8.661,0,0,1,713,2.315a5.541,5.541,0,0,1-4.528,2.222q-6.379,0-6.379-5.434a22.167,22.167,0,0,1,.787-4.174q-4.41.079-7.639,5.2v23.31a4.071,4.071,0,0,0,2.363,3.938q1.339.709,6.143.945v3.465h-26.3V28.32a21.453,21.453,0,0,0,4.1-.315q2.363-.866,2.362-3.859V-1.132a5.079,5.079,0,0,0-2.362-4.489,9.15,9.15,0,0,0-4.489-1.1V-10.11L694.3-11.37l.551.551v6.458h.63q5.276-7.009,11.734-7.009a7.264,7.264,0,0,1,5.513,2.144A8.288,8.288,0,0,1,714.77-3.26Zm45.754-4.015q-5.04,1.1-6.458,4.489Q751,5.01,744.144,22.256a81.915,81.915,0,0,0-3.15,9.765h-6.221q-5.119-13.781-13.545-35.2-1.181-3.071-6.379-3.938v-3.465h23v3.544q-4.961.236-4.961,1.5a10.584,10.584,0,0,0,.394,1.89q.63,1.733,8.19,21.263h.315q3.229-7.875,7.56-19.53a7.344,7.344,0,0,0,.473-2.6q0-1.969-5.906-2.678v-3.386h16.616Zm20.081-16.931q0,6.064-7.166,6.064a7.654,7.654,0,0,1-5.079-1.614,5.07,5.07,0,0,1-1.929-4.056,5.231,5.231,0,0,1,1.929-4.213,7.654,7.654,0,0,1,5.079-1.614Q780.605-29.64,780.605-24.206Zm5.749,55.991H762.1V28.32a30.647,30.647,0,0,0,4.174-.394q2.284-.788,2.284-3.78V-.817a5.009,5.009,0,0,0-2.284-4.489,10.643,10.643,0,0,0-5.434-1.339v-3.386l18.506-1.339.551.63V23.6q0,4.41,6.458,4.725ZM828.17,20.76a20.74,20.74,0,0,1-6.615,8.505A16.173,16.173,0,0,1,811.4,32.809q-9.844,0-15.356-6.469-5.2-6.075-5.2-15.936a22.379,22.379,0,0,1,5.67-15.383,19.874,19.874,0,0,1,15.514-6.785q7.087,0,11.025,3.164a9.4,9.4,0,0,1,3.7,7.753q0,6.723-6.457,6.723a7.128,7.128,0,0,1-4.174-1.26A4.724,4.724,0,0,1,813.838.443a9.485,9.485,0,0,1,.669-3.662,8.866,8.866,0,0,0,.669-1.929q-.394-2.441-3.544-2.441-3.622,0-5.828,3.78-2.6,4.489-2.6,13.7,0,7.4,3.229,12.049,2.993,4.489,7.639,4.489a9.884,9.884,0,0,0,6.773-2.284,19.5,19.5,0,0,0,4.331-5.985Zm43.234.551a21.338,21.338,0,0,1-7.639,8.269,20.035,20.035,0,0,1-11.025,3.229q-10.474,0-16.223-6.547-5.355-6.075-5.355-15.857a22.756,22.756,0,0,1,5.513-15.383,19,19,0,0,1,15.12-6.785q9.45,0,14.175,5.453,4.174,4.743,4.174,12.727v3H843.369q0,7.954,3.544,12.443t10.08,4.489q7.088,0,11.5-7.8ZM858.1,5.325q0-12.994-6.772-12.994a6.321,6.321,0,0,0-5.591,3.229q-2.284,3.465-2.362,10Z" transform="translate(10.786 716.527)" fill="#fff"/></g></svg>