<svg xmlns="http://www.w3.org/2000/svg" xmlns:xlink="http://www.w3.org/1999/xlink" width="407.8" height="237.251" viewBox="0 0 407.8 237.251"><defs><filter id="a" x="187.517" y="0" width="85.921" height="61.279" filterUnits="userSpaceOnUse"><feOffset dy="3" input="SourceAlpha"/><feGaussianBlur stdDeviation="3" result="b"/><feFlood flood-color="#ff0"/><feComposite operator="in" in2="b"/><feComposite in="SourceGraphic"/></filter><filter id="c" x="192.865" y="18.905" width="73.875" height="72.27" filterUnits="userSpaceOnUse"><feOffset dx="0.5" dy="0.5" input="SourceAlpha"/><feGaussianBlur stdDeviation="1" result="d"/><feFlood flood-color="#ff0"/><feComposite operator="in" in2="d"/><feComposite in="SourceGraphic"/></filter><filter id="e" x="235.608" y="82.173" width="9.611" height="9.014" filterUnits="userSpaceOnUse"><feOffset dx="0.5" dy="0.5" input="SourceAlpha"/><feGaussianBlur stdDeviation="1" result="f"/><feFlood flood-color="#ff0"/><feComposite operator="in" in2="f"/><feComposite in="SourceGraphic"/></filter><filter id="g" x="237.283" y="16.569" width="10.688" height="10.688" filterUnits="userSpaceOnUse"><feOffset dx="0.5" dy="0.5" input="SourceAlpha"/><feGaussianBlur stdDeviation="1" result="h"/><feFlood flood-color="#ff0"/><feComposite operator="in" in2="h"/><feComposite in="SourceGraphic"/></filter></defs><g transform="translate(-329.1 -402.624)"><path d="M131.4-48.15q0,22.5-16.875,37.013T71.1,3.375a90.453,90.453,0,0,1-45.9-12.6L19.8,2.25H9.675L8.1-61.65H18.225Q25.65-40.725,37.125-27,51.3-9.9,67.5-9.9q13.275,0,21.038-7.875T96.3-38.025q0-18-25.2-27.225Q60.075-69.075,41.625-76.275,12.15-89.55,12.15-121.95q0-20.025,14.85-33.975,15.75-14.85,40.725-14.85,22.5,0,39.825,11.025l4.725-9.45h10.35l1.125,60.3h-9.9q-8.1-22.95-16.65-34.2-11.025-14.4-25.875-14.4a23.6,23.6,0,0,0-17.775,7.538,25.566,25.566,0,0,0-7.2,18.337q0,9.9,5.85,16.088T71.325-104.4q10.575,3.825,29.25,11.025,14.85,6.75,22.05,15.975Q131.4-66.15,131.4-48.15Z" transform="translate(605 636)" stroke="#ff0" stroke-width="1"/><path d="M171.675,0H87.525V-10.35Q110.7-11.7,110.7-15.075a16.525,16.525,0,0,0-1.125-5.4l-12.15-34.65H45.9q-9.45,26.55-9.45,36.45,0,6.75,24.975,8.1V0H-5.4V-10.575q9.675-.45,15.075-3.6Q18.9-19.35,23.4-31.5L74.025-169.65H94.95L147.375-24.3Q149.85-18,157.5-14.4a40.5,40.5,0,0,0,14.175,3.825ZM92.25-68.625l-20.7-57.15L51.075-68.625Z" transform="translate(335 636)" stroke="#ff0" stroke-width="1"/><g transform="translate(-2649.113 270.124)"><path d="M328.3-467.486v13.43h4.245c4.168,0,4.245,0,4.245,2.238,0,3.55-3.628,6.56-10.188,8.567-35.966,10.883-53.332,51.171-36.815,85.285,4.94,10.111,10.783,19.849,24.312,25.933s14.706,5.839,29.544,5.9,25.949-3.659,29.808-5.666c17.983-9.57,16.785-15.164,18.252-36.621.695-10.728,1.93-14.2,6.869-19.45,8.258-8.721,5.866-16.517-4.476-14.587-3.087.54-10.342,5.171-14.356,9.107a49.875,49.875,0,0,0-5.866,7.564c-3.087,4.708-5.054,20.644-10.379,23.423-3.473,1.775-4.785,2.007-11.268,2.007-5.866,0-8.1-.309-11.114-1.7a24.75,24.75,0,0,1-12.966-12.349c-2.238-4.476-2.547-5.866-2.47-10.96.077-10.651,4.785-18.6,14.433-24.235,7.255-4.245,27.4-24.312,29.56-29.406,1-2.47.926-3.01-1.235-8.49-1.235-3.242-2.315-6.02-2.315-6.174,0-.232,1.775-.386,3.859-.386h3.859v-13.43Z" transform="translate(2857.606 690.888)" stroke="#ff0" stroke-width="1"/><g transform="translate(3009.62 -430)"><path d="M268.9-486.978l22,23h46s21.934-22.769,22-23c.066-.264-26-68-26-68h-38Z" transform="translate(-114.899 1119.978)" stroke="#ff0" stroke-width="1"/><g transform="matrix(1, 0, 0, 1, -31.41, 562.5)" filter="url(#a)"><path d="M4450.325,3601.559l16.721-41.206h31.4l17.027,41.206" transform="translate(-4252.42 -3552.85)" fill="none" stroke="#ff0" stroke-width="3"/></g><g transform="translate(-1 -1)"><g transform="matrix(1, 0, 0, 1, -30.41, 563.5)" filter="url(#c)"><path d="M5136.4,3555.964h2.857l15.985-17.294-4.631-11.833-27.12,29.127H5107.21l38.634-42.023-4.6-11.655-41.887,45.451-8.217-9.068,42.651-45.354" transform="translate(-4893.74 -3469.79)" fill="none" stroke="#ff0" stroke-linecap="square" stroke-width="3"/></g><g transform="matrix(1, 0, 0, 1, -30.41, 563.5)" filter="url(#e)"><path d="M4978.21,3508.343h3.611v-3.014h-.726Z" transform="translate(-4740.1 -3420.66)" fill="#ff0"/></g><g transform="matrix(1, 0, 0, 1, -30.41, 563.5)" filter="url(#g)"><path d="M0,0H3.613V3.016H2.889Z" transform="translate(244.47 21.2) rotate(135)" fill="#ff0"/></g></g></g></g></g></svg>