<svg xmlns="http://www.w3.org/2000/svg" xmlns:xlink="http://www.w3.org/1999/xlink" width="316.963" height="233.753" viewBox="0 0 316.963 233.753"><defs><filter id="a" x="135.259" y="0" width="85.921" height="61.279" filterUnits="userSpaceOnUse"><feOffset dy="3" input="SourceAlpha"/><feGaussianBlur stdDeviation="3" result="b"/><feFlood flood-color="#ff0"/><feComposite operator="in" in2="b"/><feComposite in="SourceGraphic"/></filter><filter id="c" x="140.607" y="18.905" width="73.875" height="72.27" filterUnits="userSpaceOnUse"><feOffset dx="0.5" dy="0.5" input="SourceAlpha"/><feGaussianBlur stdDeviation="1" result="d"/><feFlood flood-color="#ff0"/><feComposite operator="in" in2="d"/><feComposite in="SourceGraphic"/></filter><filter id="e" x="183.349" y="82.173" width="9.611" height="9.014" filterUnits="userSpaceOnUse"><feOffset dx="0.5" dy="0.5" input="SourceAlpha"/><feGaussianBlur stdDeviation="1" result="f"/><feFlood flood-color="#ff0"/><feComposite operator="in" in2="f"/><feComposite in="SourceGraphic"/></filter><filter id="g" x="185.025" y="16.569" width="10.688" height="10.688" filterUnits="userSpaceOnUse"><feOffset dx="0.5" dy="0.5" input="SourceAlpha"/><feGaussianBlur stdDeviation="1" result="h"/><feFlood flood-color="#ff0"/><feComposite operator="in" in2="h"/><feComposite in="SourceGraphic"/></filter></defs><g transform="translate(-3030.471 -132.5)"><path d="M61.652-119.3H40.3a9.177,9.177,0,0,1-9.15-9.15,9.177,9.177,0,0,1,9.15-9.15H61.652a24.473,24.473,0,0,0,24.4-24.4H40.3A33.552,33.552,0,0,0,6.75-128.449,33.455,33.455,0,0,0,40.3-94.9H61.652a9.177,9.177,0,0,1,9.15,9.15,9.177,9.177,0,0,1-9.15,9.15H6.75a24.473,24.473,0,0,0,24.4,24.4h30.5A33.552,33.552,0,0,0,95.2-85.747,33.65,33.65,0,0,0,61.652-119.3Z" transform="translate(3250.73 388)" fill="none" stroke="#ff0" stroke-width="3"/><path d="M56.418-58.32,1.215,52.086h36.5A24.607,24.607,0,0,0,62.245,27.551h-20.7L56.418-3.424,78.806,41.505c3.373,6.287,11.807,10.581,20.241,10.581h12.574Z" transform="translate(3031.683 283.32)" fill="none" stroke="#ff0" stroke-width="3"/><path d="M328.3-467.486v13.43h4.245c4.168,0,4.245,0,4.245,2.238,0,3.55-3.628,6.56-10.188,8.567-35.966,10.883-53.332,51.171-36.815,85.285,4.94,10.111,10.783,19.849,24.312,25.933s14.706,5.839,29.544,5.9,25.949-3.659,29.808-5.666c17.983-9.57,16.785-15.164,18.252-36.621.695-10.728,1.93-14.2,6.869-19.45,8.258-8.721,5.866-16.517-4.476-14.587-3.087.54-10.342,5.171-14.356,9.107a49.875,49.875,0,0,0-5.866,7.564c-3.087,4.708-5.054,20.644-10.379,23.423-3.473,1.775-4.785,2.007-11.268,2.007-5.866,0-8.1-.309-11.114-1.7a24.75,24.75,0,0,1-12.966-12.349c-2.238-4.476-2.547-5.866-2.47-10.96.077-10.651,4.785-18.6,14.433-24.235,7.255-4.245,27.4-24.312,29.56-29.406,1-2.47.926-3.01-1.235-8.49-1.235-3.242-2.315-6.02-2.315-6.174,0-.232,1.775-.386,3.859-.386h3.859v-13.43Z" transform="translate(2857.606 690.888)" fill="none" stroke="#ff0" stroke-width="3"/><g transform="translate(3009.62 -430)"><path d="M268.9-486.978l22,23h46s21.934-22.769,22-23c.066-.264-26-68-26-68h-38Z" transform="translate(-114.899 1119.978)"/><g transform="matrix(1, 0, 0, 1, 20.85, 562.5)" filter="url(#a)"><path d="M4450.325,3601.559l16.721-41.206h31.4l17.027,41.206" transform="translate(-4304.68 -3552.85)" fill="none" stroke="#ff0" stroke-width="3"/></g><g transform="translate(-1 -1)"><g transform="matrix(1, 0, 0, 1, 21.85, 563.5)" filter="url(#c)"><path d="M5136.4,3555.964h2.857l15.985-17.294-4.631-11.833-27.12,29.127H5107.21l38.634-42.023-4.6-11.655-41.887,45.451-8.217-9.068,42.651-45.354" transform="translate(-4945.99 -3469.79)" fill="none" stroke="#ff0" stroke-linecap="square" stroke-width="3"/></g><g transform="matrix(1, 0, 0, 1, 21.85, 563.5)" filter="url(#e)"><path d="M4978.21,3508.343h3.611v-3.014h-.726Z" transform="translate(-4792.36 -3420.66)" fill="#ff0"/></g><g transform="matrix(1, 0, 0, 1, 21.85, 563.5)" filter="url(#g)"><path d="M0,0H3.613V3.016H2.889Z" transform="translate(192.21 21.2) rotate(135)" fill="#ff0"/></g></g></g></g></svg>